<svg width="267" height="145" viewBox="0 0 267 145" fill="none" xmlns="http://www.w3.org/2000/svg">
<g clip-path="url(#clip0_32998_4069)">
<path d="M0 89H37.9402V97.927H9.94154V112.129H36.5199V121.056H9.94154V142.968H0V89Z" fill="black"/>
<path d="M48.291 103.607H57.6239V110.099C59.6528 105.433 64.1163 102.592 69.1885 102.795C70.4059 102.795 71.4203 102.795 72.6376 103.404V112.128C71.2174 111.925 69.7972 111.722 68.377 111.722C61.4788 111.722 57.8268 115.171 57.8268 123.287V142.561H48.4939V103.607H48.291Z" fill="black"/>
<path d="M77.0977 123.291C77.0977 111.117 84.8074 102.596 95.1547 102.596C100.633 102.393 105.908 105.234 108.545 109.9V103.611H117.878V142.768H108.545V136.478C105.908 141.144 100.633 143.985 95.1547 143.782C84.6045 143.782 77.0977 135.261 77.0977 123.088V123.291ZM97.5894 135.464C104.285 135.464 108.545 130.392 108.545 123.291C108.545 116.189 104.285 111.117 97.5894 111.117C90.8941 111.117 86.6334 116.189 86.6334 123.291C86.6334 130.392 90.8941 135.464 97.5894 135.464Z" fill="black"/>
<path d="M127.818 123.289C127.818 111.116 135.934 102.595 148.31 102.595C155.208 102.189 161.701 105.638 165.353 111.522L158.252 116.594C156.223 113.145 152.571 111.116 148.513 111.319C141.818 111.319 137.557 115.985 137.557 123.492C137.557 130.999 142.021 135.665 148.513 135.665C155.005 135.665 156.223 133.636 158.252 130.187L165.353 135.259C162.107 140.94 156.02 144.186 148.31 144.186C135.934 144.186 127.818 135.665 127.818 123.492V123.289Z" fill="black"/>
<path d="M177.533 131.403V111.926H170.229V103.608H177.533V89H186.865V103.608H198.024V111.926H186.865V130.186C186.865 133.838 188.488 135.055 192.546 135.055C196.604 135.055 196.401 134.852 198.227 134.446V142.359C195.792 143.171 193.155 143.576 190.517 143.576C181.59 143.576 177.533 139.722 177.533 131.403Z" fill="black"/>
<path d="M204.311 123.287C204.311 111.113 212.02 102.592 222.368 102.592C227.846 102.389 233.121 105.23 235.758 109.896V103.607H245.091V142.764H235.758V136.474C233.121 141.343 227.846 144.184 222.368 143.778C212.02 143.778 204.311 135.257 204.311 123.084V123.287ZM225.005 135.46C231.7 135.46 235.961 130.388 235.961 123.287C235.961 116.186 231.7 111.113 225.005 111.113C218.31 111.113 214.049 116.186 214.049 123.287C214.049 130.388 218.31 135.46 225.005 135.46Z" fill="black"/>
<path d="M257.668 89H267.001V142.968H257.668V89Z" fill="black"/>
<g clip-path="url(#clip1_32998_4069)">
<path d="M104 11.8242H142.732C142.732 11.8242 142.639 16.6676 141.189 19.3901H119.926V32.8945H139.269C139.269 32.8945 138.906 36.9667 137.356 40.846C136.5 40.8846 119.934 40.846 119.934 40.846V57.7054C119.934 59.6566 119.448 61.6002 118.438 63.2738C116.965 65.7109 113.54 68.6416 109.252 68.6879C104.44 68.6879 104.008 68.6879 104.008 68.6879V63.5977C104.008 63.5977 107.316 63.9293 108.759 61.3379C109.113 60.7055 109.252 59.9651 109.252 59.2402V22.6139C109.252 19.8297 106.923 17.5623 104.147 17.7474C104.1 17.7474 104.054 17.7551 104.008 17.7551V11.8242H104Z" fill="black"/>
<path d="M146.519 11.8242C146.519 11.8242 154.71 11.9862 157.98 19.3901C158.581 20.6395 162.661 30.9896 152.481 35.5553C153.537 35.9487 158.134 37.1904 160.934 42.188C163.533 46.8309 163.702 52.5381 161.373 57.3275C160.479 59.1785 159.106 61.1914 157 63.1581C156.16 63.9525 153.337 67.4385 142.74 67.4385C132.143 67.4385 120.744 67.4385 120.744 67.4385C120.744 67.4385 122.271 65.6415 123.929 60.0345H142.94C144.946 60.0345 146.943 59.6412 148.748 58.762C151.247 57.5434 153.915 55.2143 153.838 50.8182C153.838 48.2577 153.838 44.5634 149.974 42.2034C148.478 41.2857 146.727 40.8769 144.977 40.8769H140.966C140.966 40.8769 142.323 37.4911 142.709 32.8637H144.414C147.545 32.8637 150.306 30.6657 150.869 27.5807C150.938 27.1874 150.992 26.7709 151.008 26.3159C151.008 24.5728 151.81 19.822 145.092 19.3824C145.092 19.3901 146.365 16.2511 146.519 11.8242Z" fill="black" fill-opacity="0.7"/>
<path d="M142.733 2.43359H136.131V11.8196H142.733V2.43359Z" fill="black" fill-opacity="0.7"/>
<path d="M132.135 2.43359H125.533V11.8196H132.135V2.43359Z" fill="black" fill-opacity="0.7"/>
<path d="M142.733 67.4297H136.131V76.8157H142.733V67.4297Z" fill="black" fill-opacity="0.7"/>
<path d="M132.135 67.4297H125.533V76.8157H132.135V67.4297Z" fill="black" fill-opacity="0.7"/>
</g>
</g>
<defs>
<clipPath id="clip0_32998_4069">
<rect width="267" height="145" fill="white"/>
</clipPath>
<clipPath id="clip1_32998_4069">
<rect width="59" height="74.394" fill="white" transform="translate(104 2.43359)"/>
</clipPath>
</defs>
</svg>
