<svg width="267" height="145" viewBox="0 0 267 145" fill="none" xmlns="http://www.w3.org/2000/svg">
<g clip-path="url(#clip0_32998_4099)">
<path d="M0 89H37.9402V97.927H9.94154V112.129H36.5199V121.056H9.94154V142.968H0V89Z" fill="white"/>
<path d="M48.291 103.607H57.6239V110.099C59.6528 105.433 64.1163 102.592 69.1885 102.795C70.4059 102.795 71.4203 102.795 72.6376 103.404V112.128C71.2174 111.925 69.7972 111.722 68.377 111.722C61.4788 111.722 57.8268 115.171 57.8268 123.287V142.561H48.4939V103.607H48.291Z" fill="white"/>
<path d="M77.0977 123.291C77.0977 111.117 84.8074 102.596 95.1547 102.596C100.633 102.393 105.908 105.234 108.545 109.9V103.611H117.878V142.768H108.545V136.478C105.908 141.144 100.633 143.985 95.1547 143.782C84.6045 143.782 77.0977 135.261 77.0977 123.088V123.291ZM97.5894 135.464C104.285 135.464 108.545 130.392 108.545 123.291C108.545 116.189 104.285 111.117 97.5894 111.117C90.8941 111.117 86.6334 116.189 86.6334 123.291C86.6334 130.392 90.8941 135.464 97.5894 135.464Z" fill="white"/>
<path d="M127.818 123.289C127.818 111.116 135.934 102.595 148.31 102.595C155.208 102.189 161.701 105.638 165.353 111.522L158.252 116.594C156.223 113.145 152.571 111.116 148.513 111.319C141.818 111.319 137.557 115.985 137.557 123.492C137.557 130.999 142.021 135.665 148.513 135.665C155.005 135.665 156.223 133.636 158.252 130.187L165.353 135.259C162.107 140.94 156.02 144.186 148.31 144.186C135.934 144.186 127.818 135.665 127.818 123.492V123.289Z" fill="white"/>
<path d="M177.533 131.403V111.926H170.229V103.608H177.533V89H186.865V103.608H198.024V111.926H186.865V130.186C186.865 133.838 188.488 135.055 192.546 135.055C196.604 135.055 196.401 134.852 198.227 134.446V142.359C195.792 143.171 193.155 143.576 190.517 143.576C181.59 143.576 177.533 139.722 177.533 131.403Z" fill="white"/>
<path d="M204.311 123.287C204.311 111.113 212.02 102.592 222.368 102.592C227.846 102.389 233.121 105.23 235.758 109.896V103.607H245.091V142.764H235.758V136.474C233.121 141.343 227.846 144.184 222.368 143.778C212.02 143.778 204.311 135.257 204.311 123.084V123.287ZM225.005 135.46C231.7 135.46 235.961 130.388 235.961 123.287C235.961 116.186 231.7 111.113 225.005 111.113C218.31 111.113 214.049 116.186 214.049 123.287C214.049 130.388 218.31 135.46 225.005 135.46Z" fill="white"/>
<path d="M257.668 89H267.001V142.968H257.668V89Z" fill="white"/>
<g clip-path="url(#clip1_32998_4099)">
<path d="M104 11.3867H142.732C142.732 11.3867 142.639 16.2301 141.189 18.9526H119.926V32.457H139.269C139.269 32.457 138.906 36.5292 137.356 40.4085C136.5 40.4471 119.934 40.4085 119.934 40.4085V57.2679C119.934 59.2191 119.448 61.1627 118.438 62.8363C116.965 65.2734 113.54 68.2041 109.252 68.2504C104.44 68.2504 104.008 68.2504 104.008 68.2504V63.1602C104.008 63.1602 107.316 63.4918 108.759 60.9005C109.113 60.268 109.252 59.5276 109.252 58.8027V22.1764C109.252 19.3922 106.923 17.1248 104.147 17.3099C104.1 17.3099 104.054 17.3176 104.008 17.3176V11.3867H104Z" fill="#F96C04"/>
<path d="M146.519 11.3867C146.519 11.3867 154.71 11.5487 157.98 18.9526C158.581 20.202 162.661 30.5521 152.481 35.1178C153.537 35.5112 158.134 36.7529 160.934 41.7505C163.533 46.3934 163.702 52.1006 161.373 56.89C160.479 58.741 159.106 60.7539 157 62.7206C156.16 63.515 153.337 67.001 142.74 67.001C132.143 67.001 120.744 67.001 120.744 67.001C120.744 67.001 122.271 65.204 123.929 59.597H142.94C144.946 59.597 146.943 59.2037 148.748 58.3245C151.247 57.1059 153.915 54.7768 153.838 50.3807C153.838 47.8202 153.838 44.1259 149.974 41.7659C148.478 40.8482 146.727 40.4394 144.977 40.4394H140.966C140.966 40.4394 142.323 37.0536 142.709 32.4262H144.414C147.545 32.4262 150.306 30.2282 150.869 27.1432C150.938 26.7499 150.992 26.3334 151.008 25.8784C151.008 24.1353 151.81 19.3845 145.092 18.9449C145.092 18.9526 146.365 15.8136 146.519 11.3867Z" fill="white"/>
<path d="M142.733 2H136.131V11.386H142.733V2Z" fill="white"/>
<path d="M132.135 2H125.533V11.386H132.135V2Z" fill="white"/>
<path d="M142.733 67H136.131V76.386H142.733V67Z" fill="white"/>
<path d="M132.135 67H125.533V76.386H132.135V67Z" fill="white"/>
</g>
</g>
<defs>
<clipPath id="clip0_32998_4099">
<rect width="267" height="145" fill="white"/>
</clipPath>
<clipPath id="clip1_32998_4099">
<rect width="59" height="74.394" fill="white" transform="translate(104 2)"/>
</clipPath>
</defs>
</svg>
