<svg width="338" height="68" viewBox="0 0 338 68" fill="none" xmlns="http://www.w3.org/2000/svg">
<g clip-path="url(#clip0_32998_4161)">
<path d="M71 6H108.94V14.927H80.9415V29.129H107.52V38.056H80.9415V59.9677H71V6Z" fill="white"/>
<path d="M119.291 20.6069H128.624V27.0992C130.653 22.4329 135.116 19.5925 140.189 19.7953C141.406 19.7953 142.42 19.7953 143.638 20.404V29.1281C142.217 28.9252 140.797 28.7223 139.377 28.7223C132.479 28.7223 128.827 32.1714 128.827 40.2868V59.561H119.494V20.6069H119.291Z" fill="white"/>
<path d="M148.098 40.2905C148.098 28.1173 155.807 19.5961 166.155 19.5961C171.633 19.3932 176.908 22.2336 179.545 26.9V20.6106H188.878V59.7676H179.545V53.4781C176.908 58.1445 171.633 60.9849 166.155 60.782C155.605 60.782 148.098 52.2608 148.098 40.0876V40.2905ZM168.589 52.4637C175.285 52.4637 179.545 47.3915 179.545 40.2905C179.545 33.1895 175.285 28.1173 168.589 28.1173C161.894 28.1173 157.633 33.1895 157.633 40.2905C157.633 47.3915 161.894 52.4637 168.589 52.4637Z" fill="white"/>
<path d="M198.818 40.2891C198.818 28.116 206.934 19.5947 219.31 19.5947C226.208 19.189 232.701 22.638 236.353 28.5217L229.252 33.5939C227.223 30.1448 223.571 28.116 219.513 28.3188C212.818 28.3188 208.557 32.9852 208.557 40.492C208.557 47.9988 213.021 52.6652 219.513 52.6652C226.005 52.6652 227.223 50.6363 229.252 47.1872L236.353 52.2594C233.107 57.9402 227.02 61.1864 219.31 61.1864C206.934 61.1864 198.818 52.6652 198.818 40.492V40.2891Z" fill="white"/>
<path d="M248.533 48.4032V28.9261H241.229V20.6078H248.533V6H257.865V20.6078H269.024V28.9261H257.865V47.1859C257.865 50.8378 259.488 52.0551 263.546 52.0551C267.604 52.0551 267.401 51.8522 269.227 51.4465V59.359C266.792 60.1706 264.155 60.5763 261.517 60.5763C252.59 60.5763 248.533 56.7215 248.533 48.4032Z" fill="white"/>
<path d="M275.311 40.2866C275.311 28.1134 283.02 19.5922 293.368 19.5922C298.846 19.3893 304.121 22.2297 306.758 26.8961V20.6067H316.091V59.7637H306.758V53.4742C304.121 58.3435 298.846 61.1839 293.368 60.7781C283.02 60.7781 275.311 52.2569 275.311 40.0837V40.2866ZM296.005 52.4598C302.7 52.4598 306.961 47.3876 306.961 40.2866C306.961 33.1856 302.7 28.1134 296.005 28.1134C289.31 28.1134 285.049 33.1856 285.049 40.2866C285.049 47.3876 289.31 52.4598 296.005 52.4598Z" fill="white"/>
<path d="M328.668 6H338.001V59.9677H328.668V6Z" fill="white"/>
<g clip-path="url(#clip1_32998_4161)">
<path d="M0 8.58984H35.4494C35.4494 8.58984 35.3647 13.0228 34.0376 15.5146H14.5765V27.8746H32.28C32.28 27.8746 31.9482 31.6016 30.5294 35.1522C29.7459 35.1875 14.5835 35.1522 14.5835 35.1522V50.5828C14.5835 52.3687 14.1388 54.1475 13.2141 55.6793C11.8659 57.9098 8.73176 60.5922 4.80706 60.6346C0.402353 60.6346 0.00705882 60.6346 0.00705882 60.6346V55.9757C0.00705882 55.9757 3.03529 56.2793 4.35529 53.9075C4.68 53.3287 4.80706 52.651 4.80706 51.9875V18.4651C4.80706 15.9169 2.67529 13.8416 0.134118 14.011C0.0917647 14.011 0.0494118 14.0181 0.00705882 14.0181V8.58984H0Z" fill="#F96C04"/>
<path d="M38.9148 8.58984C38.9148 8.58984 46.4113 8.73808 49.4042 15.5145C49.9548 16.6581 53.6889 26.131 44.3713 30.3098C45.3383 30.6698 49.5454 31.8063 52.1077 36.3804C54.4866 40.6298 54.6419 45.8534 52.5101 50.2369C51.6913 51.931 50.4348 53.7734 48.5077 55.5734C47.7383 56.3004 45.1548 59.491 35.456 59.491C25.7572 59.491 15.3242 59.491 15.3242 59.491C15.3242 59.491 16.7219 57.8463 18.2395 52.7146H35.6395C37.4748 52.7146 39.303 52.3545 40.9548 51.5498C43.2419 50.4346 45.6842 48.3028 45.6136 44.2793C45.6136 41.9357 45.6136 38.5546 42.0772 36.3946C40.7077 35.5546 39.1054 35.1804 37.503 35.1804H33.8325C33.8325 35.1804 35.0748 32.0816 35.4277 27.8463H36.9877C39.8536 27.8463 42.3807 25.8345 42.896 23.011C42.9595 22.651 43.0089 22.2698 43.023 21.8534C43.023 20.2581 43.7572 15.9098 37.6089 15.5075C37.6089 15.5145 38.7736 12.6416 38.9148 8.58984Z" fill="white"/>
<path d="M35.4506 0H29.4082V8.59059H35.4506V0Z" fill="white"/>
<path d="M25.7513 0H19.709V8.59059H25.7513V0Z" fill="white"/>
<path d="M35.4506 59.4922H29.4082V68.0828H35.4506V59.4922Z" fill="white"/>
<path d="M25.7513 59.4922H19.709V68.0828H25.7513V59.4922Z" fill="white"/>
</g>
</g>
<defs>
<clipPath id="clip0_32998_4161">
<rect width="338" height="68" fill="white"/>
</clipPath>
<clipPath id="clip1_32998_4161">
<rect width="54" height="68.0894" fill="white"/>
</clipPath>
</defs>
</svg>
