<svg viewBox="0 0 54 68" fill="none" xmlns="http://www.w3.org/2000/svg">
<path d="M0 8.58984H35.4494C35.4494 8.58984 35.3647 13.0228 34.0376 15.5146H14.5765V27.8746H32.28C32.28 27.8746 31.9482 31.6016 30.5294 35.1522C29.7459 35.1875 14.5835 35.1522 14.5835 35.1522V50.5828C14.5835 52.3687 14.1388 54.1475 13.2141 55.6793C11.8659 57.9098 8.73176 60.5922 4.80706 60.6346C0.402353 60.6346 0.00705882 60.6346 0.00705882 60.6346V55.9757C0.00705882 55.9757 3.03529 56.2793 4.35529 53.9075C4.68 53.3287 4.80706 52.651 4.80706 51.9875V18.4651C4.80706 15.9169 2.67529 13.8416 0.134118 14.011C0.0917647 14.011 0.0494118 14.0181 0.00705882 14.0181V8.58984H0Z" fill="#F96C04"/>
<path d="M38.9148 8.58984C38.9148 8.58984 46.4113 8.73808 49.4042 15.5145C49.9548 16.6581 53.6889 26.131 44.3713 30.3098C45.3383 30.6698 49.5454 31.8063 52.1077 36.3804C54.4866 40.6298 54.6419 45.8534 52.5101 50.2369C51.6913 51.931 50.4348 53.7734 48.5077 55.5734C47.7383 56.3004 45.1548 59.491 35.456 59.491C25.7572 59.491 15.3242 59.491 15.3242 59.491C15.3242 59.491 16.7219 57.8463 18.2395 52.7146H35.6395C37.4748 52.7146 39.303 52.3545 40.9548 51.5498C43.2419 50.4346 45.6842 48.3028 45.6136 44.2793C45.6136 41.9357 45.6136 38.5546 42.0772 36.3946C40.7077 35.5546 39.1054 35.1804 37.503 35.1804H33.8325C33.8325 35.1804 35.0748 32.0816 35.4277 27.8463H36.9877C39.8536 27.8463 42.3807 25.8345 42.896 23.011C42.9595 22.651 43.0089 22.2698 43.023 21.8534C43.023 20.2581 43.7572 15.9098 37.6089 15.5075C37.6089 15.5145 38.7736 12.6416 38.9148 8.58984Z" fill="#F96C04"/>
<path d="M35.4506 0H29.4082V8.59059H35.4506V0Z" fill="#F96C04"/>
<path d="M25.7513 0H19.709V8.59059H25.7513V0Z" fill="#F96C04"/>
<path d="M35.4506 59.4922H29.4082V68.0828H35.4506V59.4922Z" fill="#F96C04"/>
<path d="M25.7513 59.4922H19.709V68.0828H25.7513V59.4922Z" fill="#F96C04"/>
</svg>
