<svg width="338" height="68" viewBox="0 0 338 68" fill="none" xmlns="http://www.w3.org/2000/svg">
<g clip-path="url(#clip0_32998_4124)">
<g clip-path="url(#clip1_32998_4124)">
<path d="M0 8.58203H35.4031C35.4031 8.58203 35.3186 13.0092 33.9932 15.4977H14.5574V27.8416H32.2379C32.2379 27.8416 31.9065 31.5638 30.4896 35.1097C29.7071 35.145 14.5645 35.1097 14.5645 35.1097V50.5202C14.5645 52.3037 14.1204 54.0802 13.1969 55.61C11.8504 57.8377 8.72037 60.5165 4.80078 60.5588C0.401828 60.5588 0.00704961 60.5588 0.00704961 60.5588V55.9061C0.00704961 55.9061 3.03133 56.2092 4.34961 53.8405C4.67389 53.2625 4.80078 52.5857 4.80078 51.923V18.4444C4.80078 15.8995 2.6718 13.8269 0.133943 13.9961C0.0916449 13.9961 0.0493473 14.0032 0.00704961 14.0032V8.58203H0Z" fill="black"/>
<path d="M38.8645 8.58203C38.8645 8.58203 46.3512 8.73007 49.3402 15.4977C49.8901 16.6397 53.6193 26.1003 44.3138 30.2737C45.2796 30.6332 49.4812 31.7682 52.0402 36.3364C54.4159 40.5802 54.571 45.7969 52.442 50.1747C51.6243 51.8666 50.3695 53.7066 48.4449 55.5043C47.6765 56.2304 45.0963 59.4168 35.4102 59.4168C25.724 59.4168 15.3047 59.4168 15.3047 59.4168C15.3047 59.4168 16.7005 57.7742 18.2162 52.6492H35.5935C37.4264 52.6492 39.2522 52.2896 40.9018 51.486C43.1859 50.3721 45.6251 48.2431 45.5546 44.2249C45.5546 41.8844 45.5546 38.5076 42.0227 36.3505C40.6551 35.5115 39.0548 35.1379 37.4546 35.1379H33.7888C33.7888 35.1379 35.0295 32.0431 35.382 27.8134H36.9399C39.8021 27.8134 42.3259 25.8042 42.8405 22.9844C42.9039 22.6249 42.9533 22.2442 42.9674 21.8283C42.9674 20.235 43.7005 15.8925 37.5603 15.4907C37.5603 15.4977 38.7235 12.6285 38.8645 8.58203Z" fill="black" fill-opacity="0.7"/>
<path d="M35.4056 0H29.3711V8.57938H35.4056V0Z" fill="black" fill-opacity="0.7"/>
<path d="M25.7181 0H19.6836V8.57938H25.7181V0Z" fill="black" fill-opacity="0.7"/>
<path d="M35.4056 59.4102H29.3711V67.9895H35.4056V59.4102Z" fill="black" fill-opacity="0.7"/>
<path d="M25.7181 59.4102H19.6836V67.9895H25.7181V59.4102Z" fill="black" fill-opacity="0.7"/>
</g>
<path d="M71 7H108.94V15.927H80.9415V30.129H107.52V39.056H80.9415V60.9677H71V7Z" fill="black"/>
<path d="M119.291 21.6069H128.624V28.0992C130.653 23.4329 135.116 20.5925 140.189 20.7953C141.406 20.7953 142.42 20.7953 143.638 21.404V30.1281C142.217 29.9252 140.797 29.7223 139.377 29.7223C132.479 29.7223 128.827 33.1714 128.827 41.2868V60.561H119.494V21.6069H119.291Z" fill="black"/>
<path d="M148.098 41.2905C148.098 29.1173 155.807 20.5961 166.155 20.5961C171.633 20.3932 176.908 23.2336 179.545 27.9V21.6106H188.878V60.7676H179.545V54.4781C176.908 59.1445 171.633 61.9849 166.155 61.782C155.605 61.782 148.098 53.2608 148.098 41.0876V41.2905ZM168.589 53.4637C175.285 53.4637 179.545 48.3915 179.545 41.2905C179.545 34.1895 175.285 29.1173 168.589 29.1173C161.894 29.1173 157.633 34.1895 157.633 41.2905C157.633 48.3915 161.894 53.4637 168.589 53.4637Z" fill="black"/>
<path d="M198.818 41.2891C198.818 29.116 206.934 20.5947 219.31 20.5947C226.208 20.189 232.701 23.638 236.353 29.5217L229.252 34.5939C227.223 31.1448 223.571 29.116 219.513 29.3188C212.818 29.3188 208.557 33.9852 208.557 41.492C208.557 48.9988 213.021 53.6652 219.513 53.6652C226.005 53.6652 227.223 51.6363 229.252 48.1872L236.353 53.2594C233.107 58.9402 227.02 62.1864 219.31 62.1864C206.934 62.1864 198.818 53.6652 198.818 41.492V41.2891Z" fill="black"/>
<path d="M248.533 49.4032V29.9261H241.229V21.6078H248.533V7H257.865V21.6078H269.024V29.9261H257.865V48.1859C257.865 51.8378 259.488 53.0551 263.546 53.0551C267.604 53.0551 267.401 52.8522 269.227 52.4465V60.359C266.792 61.1706 264.155 61.5763 261.517 61.5763C252.59 61.5763 248.533 57.7215 248.533 49.4032Z" fill="black"/>
<path d="M275.311 41.2866C275.311 29.1134 283.02 20.5922 293.368 20.5922C298.846 20.3893 304.121 23.2297 306.758 27.8961V21.6067H316.091V60.7637H306.758V54.4742C304.121 59.3435 298.846 62.1839 293.368 61.7781C283.02 61.7781 275.311 53.2569 275.311 41.0837V41.2866ZM296.005 53.4598C302.7 53.4598 306.961 48.3876 306.961 41.2866C306.961 34.1856 302.7 29.1134 296.005 29.1134C289.31 29.1134 285.049 34.1856 285.049 41.2866C285.049 48.3876 289.31 53.4598 296.005 53.4598Z" fill="black"/>
<path d="M328.668 7H338.001V60.9677H328.668V7Z" fill="black"/>
</g>
<defs>
<clipPath id="clip0_32998_4124">
<rect width="338" height="68" fill="white"/>
</clipPath>
<clipPath id="clip1_32998_4124">
<rect width="53.9295" height="68.0005" fill="white"/>
</clipPath>
</defs>
</svg>
